# xmcd
#
# Track frame offsets:
#	150
#	26587
#	46237
#	72002
#	95965
#	113115
#	129785
#	153040
#	173940
#	185380
#	207980
#
# Disc length: 3065 seconds
#
# Revision: 1
# Processed by: cddbd v1.5.1PL0 Copyright (c) Steve Scherf et al.
# Submitted via: CDex 1.50Beta5
#
DISCID=8c0bf70b
DTITLE=林哲司 - PARIS MOSCOW BEIJING〜夢追人たちのメロディー〜
DYEAR=1992
DGENRE=
TTITLE0=PARIS MOSCOW BEIJING
TTITLE1=Breathing
TTITLE2=黄砂を越えて
TTITLE3=彼方へ…
TTITLE4=ウイグルの瞳
TTITLE5=天山山脈
TTITLE6=Moon Angel
TTITLE7=MIYAKO
TTITLE8=落日
TTITLE9=疾風
TTITLE10=PARIS MOSCOW BEIJING
EXTD=
EXTT0=
EXTT1=
EXTT2=
EXTT3=
EXTT4=
EXTT5=
EXTT6=
EXTT7=
EXTT8=
EXTT9=
EXTT10=
PLAYORDER=
